<svg width="271" height="272" viewBox="0 0 271 272" fill="none" xmlns="http://www.w3.org/2000/svg">
<path d="M119.727 262.374C118.195 262.162 116.919 261.702 115.9 260.995C114.881 260.288 114.154 259.372 113.717 258.248C113.281 257.124 113.163 255.843 113.363 254.403C113.561 252.977 114.023 251.782 114.749 250.82C115.473 249.87 116.422 249.194 117.595 248.792C118.766 248.403 120.118 248.314 121.65 248.527L125.751 249.097L123.828 262.944L119.727 262.374ZM121.49 249.676C119.562 249.408 118.027 249.707 116.883 250.571C115.725 251.447 115.021 252.789 114.769 254.598C114.516 256.421 114.828 257.911 115.703 259.069C116.564 260.239 117.958 260.958 119.887 261.225L122.6 261.602L124.204 250.053L121.49 249.676Z" fill="black"/>
<path d="M101.153 257.465L102.673 252.471L97.6023 250.928L97.94 249.818L103.01 251.361L104.553 246.291L98.9088 244.573L99.2465 243.463L106.23 245.588L102.155 258.982L95.171 256.857L95.5087 255.747L101.153 257.465Z" fill="black"/>
<path d="M87.4534 238.523C88.2859 238.914 88.9538 239.405 89.457 239.996C89.9482 240.58 90.2528 241.217 90.3707 241.906C90.4886 242.595 90.4093 243.265 90.1326 243.916L88.7934 243.286C89.0225 242.642 89.0064 241.972 88.7451 241.274C88.4782 240.589 87.8802 240.028 86.9511 239.591C86.0945 239.188 85.3167 239.087 84.6177 239.289C83.901 239.497 83.3837 239.939 83.0659 240.614C82.8106 241.157 82.745 241.657 82.8693 242.113C82.9879 242.581 83.2154 242.99 83.5518 243.34C83.8826 243.702 84.3645 244.15 84.9977 244.683C85.7344 245.31 86.299 245.848 86.6916 246.298C87.0841 246.748 87.3475 247.284 87.4817 247.907C87.6159 248.53 87.4986 249.234 87.1297 250.018C86.8233 250.67 86.382 251.169 85.8058 251.517C85.2239 251.877 84.5572 252.057 83.8057 252.057C83.0542 252.058 82.2802 251.87 81.4839 251.496C80.3136 250.945 79.5087 250.213 79.0693 249.299C78.6121 248.391 78.542 247.46 78.8591 246.504L80.2345 247.151C80.0749 247.709 80.1428 248.301 80.4381 248.926C80.7278 249.563 81.2828 250.075 82.1033 250.461C82.8634 250.818 83.5933 250.911 84.293 250.739C84.987 250.58 85.4986 250.15 85.8278 249.45C86.0775 248.919 86.1402 248.426 86.0159 247.969C85.8916 247.513 85.6641 247.104 85.3333 246.742C84.9905 246.375 84.5086 245.927 83.8875 245.399C83.1749 244.784 82.6191 244.242 82.2202 243.775C81.8156 243.319 81.5462 242.78 81.412 242.157C81.2778 241.534 81.3922 240.836 81.7554 240.064C82.0335 239.473 82.4543 238.986 83.0177 238.602C83.5811 238.219 84.2471 238.009 85.0156 237.973C85.7842 237.937 86.5968 238.12 87.4534 238.523Z" fill="black"/>
<path d="M67.6806 243.782L75.0794 231.92L76.2672 232.661L68.8684 244.523L67.6806 243.782Z" fill="black"/>
<path d="M53.1928 227.871C52.9125 228.835 52.9242 229.78 53.2277 230.709C53.5125 231.639 54.0805 232.457 54.9317 233.164C55.7317 233.829 56.603 234.241 57.5455 234.4C58.4881 234.559 59.4295 234.448 60.3695 234.068C61.3011 233.698 62.1418 233.062 62.8916 232.159C63.6414 231.256 64.1171 230.308 64.3188 229.314C64.5204 228.321 64.4567 227.375 64.1276 226.477C63.7985 225.58 63.2339 224.799 62.434 224.134C61.6853 223.512 60.8815 223.113 60.0225 222.937C59.1448 222.762 58.2794 222.823 57.4262 223.12C56.5543 223.418 55.7604 223.946 55.0446 224.704L59.5673 228.461L58.8388 229.338L53.1777 224.635L53.8295 223.85C54.6646 222.949 55.6325 222.306 56.733 221.92C57.8251 221.545 58.944 221.46 60.0898 221.667C61.2253 221.865 62.2751 222.364 63.2392 223.165C64.234 223.992 64.9448 224.972 65.3716 226.107C65.7898 227.252 65.8898 228.435 65.6714 229.658C65.4342 230.883 64.8768 232.023 63.9992 233.079C63.1216 234.136 62.107 234.887 60.9553 235.335C59.7848 235.784 58.6028 235.902 57.4092 235.691C56.2071 235.489 55.1086 234.976 54.1138 234.149C52.9651 233.195 52.1986 232.073 51.8143 230.783C51.43 229.492 51.469 228.173 51.9313 226.823L53.1928 227.871Z" fill="black"/>
<path d="M45.6691 205.339L46.5738 206.408L42.6016 219.914L51.5759 212.314L52.4806 213.383L41.8123 222.417L40.9075 221.349L44.8645 207.855L35.9054 215.442L35.0007 214.374L45.6691 205.339Z" fill="black"/>
<path d="M25.1412 186.578L26.202 186.061L29.6103 193.055L28.5495 193.572L25.1412 186.578Z" fill="black"/>
<path d="M8.65412 150.126L23.1144 151.548L23.3907 153.083L12.2824 158.658L24.6515 160.091L24.9404 161.583L11.8488 167.881L11.5831 166.405L23.0827 161.084L10.3825 159.732L10.1062 158.196L21.5562 152.6L8.91975 151.602L8.65412 150.126Z" fill="black"/>
<path d="M9.29429 138.345L14.5143 138.351L14.5208 133.051L15.6808 133.053L15.6743 138.353L20.9743 138.359L20.9815 132.459L22.1415 132.461L22.1326 139.761L8.13257 139.744L8.14154 132.444L9.30154 132.445L9.29429 138.345Z" fill="black"/>
<path d="M16.5018 116.399C16.761 115.642 17.2534 115.04 17.9791 114.594C18.7048 114.148 19.4964 113.988 20.3539 114.113C21.0531 114.216 21.6603 114.487 22.1753 114.926C22.6792 115.35 23.0467 115.923 23.2779 116.644C23.4959 117.363 23.5363 118.191 23.399 119.128L22.6973 123.917L8.86499 121.89L9.54646 117.239C9.75138 115.841 10.2302 114.826 10.983 114.195C11.7377 113.551 12.6295 113.305 13.6585 113.456C14.516 113.581 15.1814 113.915 15.6546 114.456C16.1147 114.995 16.3971 115.642 16.5018 116.399ZM15.1827 121.401L15.6554 118.175C15.7926 117.238 15.6803 116.487 15.3184 115.922C14.9453 115.342 14.3695 114.995 13.5912 114.881C12.826 114.769 12.1881 114.938 11.6773 115.389C11.1685 115.826 10.8426 116.533 10.6995 117.509L10.2355 120.676L15.1827 121.401ZM22.217 119.056C22.3639 118.053 22.2405 117.24 21.8468 116.616C21.455 115.979 20.8435 115.6 20.0124 115.478C19.1813 115.356 18.4782 115.557 17.9031 116.079C17.3167 116.586 16.951 117.334 16.806 118.323L16.3304 121.569L21.7327 122.36L22.217 119.056Z" fill="black"/>
<path d="M24.1497 87.644L25.2429 88.0882L22.314 95.2959L21.2209 94.8517L24.1497 87.644Z" fill="black"/>
<path d="M32.2742 61.4098C33.1973 60.1688 34.2138 59.2715 35.3236 58.7177C36.4334 58.164 37.586 57.9661 38.7813 58.1241C39.9766 58.282 41.1573 58.7947 42.3234 59.6621C43.4788 60.5215 44.304 61.5009 44.799 62.6003C45.2834 63.6917 45.4199 64.8485 45.2088 66.0707C44.9869 67.2849 44.4144 68.5126 43.4913 69.7535L41.0204 73.0753L29.8034 64.7316L32.2742 61.4098ZM42.5606 69.0612C43.7224 67.4993 44.1992 66.0094 43.9909 64.5915C43.7799 63.155 42.9416 61.8917 41.4759 60.8014C39.9996 59.7033 38.5431 59.2597 37.1066 59.4707C35.6674 59.6631 34.3668 60.5402 33.205 62.1021L31.5697 64.3006L40.9252 71.2597L42.5606 69.0612Z" fill="black"/>
<path d="M45.5092 47.4842L49.1575 51.2177L52.9482 47.5135L53.7589 48.3432L49.9682 52.0473L53.6723 55.838L57.8922 51.7145L58.7029 52.5442L53.4818 57.6461L43.6972 47.633L48.9183 42.5311L49.729 43.3607L45.5092 47.4842Z" fill="black"/>
<path d="M66.0434 29.116L69.8647 43.5703L68.5633 44.5011L56.12 36.2129L57.3563 35.3287L68.3298 42.7993L64.8396 29.9769L66.0434 29.116Z" fill="black"/>
<path d="M76.3597 24.4841L78.7136 29.1433L83.4442 26.7533L83.9672 27.7887L79.2367 30.1786L81.6266 34.9092L86.8927 32.2487L87.4158 33.284L80.9001 36.5759L74.5871 24.08L81.1027 20.7882L81.6258 21.8236L76.3597 24.4841Z" fill="black"/>
<path d="M96.261 28.4202L100.999 26.7619L101.376 27.8379L95.3162 29.9586L90.6982 16.7634L92.0196 16.3009L96.261 28.4202Z" fill="black"/>
<path d="M114.708 24.7027C113.436 24.9389 112.228 24.8582 111.083 24.4606C109.935 24.0499 108.961 23.3696 108.161 22.4198C107.371 21.4544 106.851 20.2966 106.601 18.9463C106.35 17.5961 106.421 16.3353 106.813 15.1639C107.217 13.9769 107.882 12.9923 108.808 12.2101C109.731 11.4147 110.829 10.899 112.1 10.6628C113.385 10.4242 114.601 10.5103 115.749 10.921C116.894 11.3185 117.861 12 118.651 12.9654C119.438 13.9177 119.957 15.069 120.208 16.4192C120.459 17.7695 120.389 19.0368 119.999 20.2213C119.606 21.3927 118.948 22.3761 118.024 23.1715C117.098 23.9537 115.993 24.4641 114.708 24.7027ZM114.485 23.5032C115.508 23.3133 116.381 22.907 117.107 22.2841C117.832 21.6612 118.349 20.8668 118.658 19.9008C118.964 18.9218 119.009 17.8489 118.792 16.6821C118.575 15.5154 118.15 14.5367 117.514 13.7461C116.879 12.9554 116.112 12.3996 115.211 12.0786C114.311 11.7576 113.349 11.6921 112.327 11.882C111.304 12.0719 110.431 12.4783 109.705 13.1011C108.98 13.724 108.463 14.5184 108.155 15.4844C107.846 16.4503 107.8 17.5167 108.016 18.6834C108.233 19.8501 108.66 20.8354 109.298 21.6391C109.933 22.4298 110.7 22.9856 111.601 23.3066C112.501 23.6276 113.463 23.6931 114.485 23.5032Z" fill="black"/>
<path d="M137.883 12.6168C137.904 13.8166 137.527 14.79 136.754 15.537C135.98 16.284 134.806 16.6712 133.233 16.6987L130.414 16.748L130.518 22.7071L129.118 22.7316L128.874 8.75373L133.093 8.67994C134.653 8.65266 135.832 8.99875 136.632 9.71821C137.445 10.4374 137.862 11.4036 137.883 12.6168ZM133.212 15.4989C135.399 15.4607 136.476 14.5083 136.443 12.642C136.427 11.7088 136.154 11.0068 135.626 10.5359C135.098 10.0651 134.26 9.8397 133.114 9.85976L130.294 9.90907L130.393 15.5482L133.212 15.4989Z" fill="black"/>
<path d="M161.564 11.3536L159.46 24.9923L158.077 24.7789L159.756 13.8877L153.214 24.029L152.206 23.8735L149.017 12.2719L147.344 23.1236L145.96 22.9102L148.063 9.27146L149.526 9.49705L152.981 22.1313L160.081 11.125L161.564 11.3536Z" fill="black"/>
<path d="M172.725 15.3862L171.087 20.3426L176.119 22.0056L175.755 23.107L170.723 21.444L169.06 26.4764L174.662 28.3276L174.298 29.429L167.367 27.1385L171.76 13.8455L178.691 16.136L178.327 17.2375L172.725 15.3862Z" fill="black"/>
<path d="M191.638 37.3795L190.392 36.7428L188.847 22.7492L183.498 33.2224L182.252 32.5856L188.61 20.1353L189.857 20.7721L191.41 34.7479L196.75 24.2925L197.997 24.9292L191.638 37.3795Z" fill="black"/>
<path d="M213.499 35.2499L212.821 36.1905L209.674 33.9197L202.171 44.3147L201.036 43.4953L208.539 33.1003L205.377 30.8178L206.056 29.8772L213.499 35.2499Z" fill="black"/>
<path d="M229.452 59.1226L228.557 59.8914L223.489 53.9888L224.384 53.2201L229.452 59.1226Z" fill="black"/>
<path d="M249.685 78.9814L235.622 82.6356L234.833 81.2898L243.336 72.2246L231.233 75.1475L230.447 73.8463L240.562 63.4187L241.32 64.7127L232.362 73.6737L244.749 70.5617L245.538 71.9074L236.722 81.11L248.927 77.6874L249.685 78.9814Z" fill="black"/>
<path d="M253.149 90.2601L248.247 92.0549L250.069 97.0318L248.98 97.4306L247.158 92.4538L242.181 94.2761L244.209 99.8164L243.12 100.215L240.61 93.3603L253.757 88.5466L256.267 95.4016L255.177 95.8004L253.149 90.2601Z" fill="black"/>
<path d="M253.955 113.345C253.973 114.145 253.718 114.88 253.191 115.549C252.664 116.218 251.976 116.642 251.128 116.82C250.436 116.965 249.773 116.92 249.138 116.685C248.518 116.461 247.976 116.05 247.51 115.453C247.057 114.853 246.734 114.09 246.54 113.163L245.546 108.426L259.229 105.557L260.193 110.157C260.483 111.54 260.384 112.658 259.895 113.51C259.409 114.374 258.657 114.914 257.639 115.127C256.791 115.305 256.051 115.222 255.42 114.877C254.803 114.53 254.314 114.019 253.955 113.345ZM253.467 108.196L254.137 111.386C254.331 112.313 254.695 112.979 255.23 113.384C255.78 113.8 256.441 113.928 257.21 113.766C257.967 113.607 258.508 113.228 258.832 112.629C259.158 112.043 259.22 111.267 259.018 110.301L258.361 107.169L253.467 108.196ZM247.674 112.823C247.882 113.815 248.278 114.536 248.863 114.985C249.45 115.448 250.155 115.593 250.977 115.421C251.799 115.248 252.39 114.818 252.75 114.129C253.125 113.451 253.211 112.623 253.005 111.644L252.332 108.434L246.988 109.554L247.674 112.823Z" fill="black"/>
<path d="M256.696 142.973L255.517 142.934L255.78 135.158L256.959 135.198L256.696 142.973Z" fill="black"/>
<path d="M252.233 175.854C253.229 175.735 254.095 175.355 254.831 174.713C255.575 174.087 256.107 173.244 256.425 172.184C256.724 171.188 256.763 170.225 256.541 169.295C256.319 168.366 255.849 167.542 255.131 166.826C254.427 166.113 253.512 165.588 252.389 165.251C251.265 164.913 250.206 164.846 249.212 165.049C248.219 165.251 247.373 165.68 246.676 166.333C245.978 166.987 245.48 167.812 245.181 168.808C244.901 169.74 244.848 170.636 245.021 171.496C245.204 172.372 245.598 173.145 246.205 173.814C246.82 174.5 247.616 175.024 248.593 175.387L250.284 169.756L251.376 170.083L249.259 177.133L248.282 176.839C247.127 176.423 246.156 175.783 245.371 174.921C244.599 174.063 244.084 173.066 243.826 171.93C243.564 170.808 243.614 169.646 243.974 168.446C244.346 167.207 244.971 166.17 245.848 165.333C246.739 164.501 247.789 163.946 249 163.669C250.22 163.409 251.487 163.476 252.803 163.871C254.118 164.266 255.207 164.906 256.068 165.792C256.939 166.693 257.51 167.735 257.782 168.916C258.067 170.102 258.023 171.314 257.651 172.552C257.222 173.983 256.488 175.127 255.451 175.985C254.414 176.843 253.184 177.323 251.761 177.424L252.233 175.854Z" fill="black"/>
<path d="M235.844 188.834L242.612 188.312L243.752 185.998L238.513 183.416L239.132 182.161L251.672 188.34L249.816 192.107C249.127 193.507 248.27 194.4 247.247 194.788C246.217 195.187 245.159 195.119 244.07 194.582C243.161 194.135 242.514 193.488 242.127 192.644C241.746 191.817 241.711 190.848 242.021 189.738L235.101 190.341L235.844 188.834ZM244.775 186.502L243.528 189.031C243.045 190.012 242.922 190.865 243.158 191.591C243.389 192.329 243.905 192.896 244.707 193.291C245.532 193.697 246.284 193.771 246.962 193.51C247.652 193.256 248.251 192.614 248.758 191.586L249.995 189.074L244.775 186.502Z" fill="black"/>
<path d="M229.229 205.548L232.9 200.354L230.893 197.442L231.747 196.233L240.073 208.363L239.161 209.653L224.96 205.837L225.814 204.628L229.229 205.548ZM230.419 205.875L238.186 207.984L233.605 201.367L230.419 205.875Z" fill="black"/>
<path d="M220.64 225.332C219.781 224.495 219.363 223.538 219.387 222.463C219.411 221.388 219.972 220.287 221.07 219.16L223.039 217.141L218.771 212.981L219.748 211.978L229.759 221.737L226.813 224.759C225.724 225.876 224.643 226.46 223.569 226.511C222.485 226.572 221.509 226.179 220.64 225.332ZM221.93 219.998C220.403 221.564 220.308 222.998 221.645 224.301C222.313 224.953 223.001 225.26 223.708 225.223C224.414 225.185 225.168 224.756 225.968 223.935L227.937 221.916L223.898 217.979L221.93 219.998Z" fill="black"/>
<path d="M207.636 241.059L199.278 229.852L200.4 229.015L204.31 234.258L210.387 229.727L206.477 224.484L207.599 223.647L215.957 234.854L214.834 235.691L211.08 230.656L205.004 235.188L208.758 240.222L207.636 241.059Z" fill="black"/>
<path d="M197.673 247.135L190.8 234.961L192.019 234.273L198.892 246.446L197.673 247.135Z" fill="black"/>
<path d="M186.514 245.244C187.021 246.52 187.196 247.771 187.037 248.996C186.884 250.234 186.435 251.324 185.69 252.266C184.95 253.22 183.985 253.933 182.796 254.406C181.346 254.983 179.97 255.128 178.665 254.844C177.354 254.576 176.214 253.91 175.245 252.846L176.769 252.24C177.491 252.972 178.334 253.433 179.299 253.623C180.252 253.818 181.267 253.701 182.345 253.273C183.299 252.893 184.072 252.328 184.663 251.576C185.241 250.83 185.579 249.949 185.678 248.934C185.782 247.932 185.614 246.879 185.176 245.776C184.737 244.674 184.136 243.793 183.373 243.136C182.609 242.478 181.76 242.076 180.827 241.931C179.882 241.79 178.932 241.91 177.978 242.289C176.9 242.718 176.079 243.324 175.516 244.108C174.945 244.909 174.646 245.817 174.619 246.832L173.095 247.438C173.073 246.011 173.447 244.751 174.217 243.655C174.986 242.56 176.09 241.727 177.527 241.155C178.717 240.682 179.905 240.533 181.093 240.706C182.287 240.892 183.361 241.375 184.318 242.157C185.274 242.939 186.006 243.968 186.514 245.244Z" fill="black"/>
<path d="M147.23 256.829L147.088 255.657L154.812 254.722L154.954 255.894L147.23 256.829Z" fill="black"/>
</svg>
